<svg xmlns="http://www.w3.org/2000/svg" viewBox="0 0 320 220" role="img" aria-label="Heaven Trickster character thumbnail">
  <rect width="320" height="220" rx="16" fill="#0a1020"/>
  <path d="M99 192c8-62 30-102 61-102s53 40 61 102z" fill="#15364a"/>
  <path d="M128 62c8-28 56-28 64 0 4 14-2 28-13 37h-38c-11-9-17-23-13-37z" fill="#d8f6ff"/>
  <path d="M116 116l44-30 44 30-16 74h-56z" fill="#18d9ff" opacity=".55"/>
  <path d="M94 70c-24 12-31 32-22 52M226 70c24 12 31 32 22 52" fill="none" stroke="#ffc86f" stroke-width="6" stroke-linecap="round"/>
  <path d="M124 132c26 18 46 18 72 0" fill="none" stroke="#e879f9" stroke-width="5" stroke-linecap="round"/>
</svg>
